<svg width="602" height="145" viewBox="0 0 602 145" fill="none" xmlns="http://www.w3.org/2000/svg">
<path d="M399.5 143.319C384.122 139.931 366.67 128.833 357.353 116.516C337.41 90.1551 336.91 58.0349 356.005 29.8837C364.455 17.4267 378.816 7.65381 396.5 2.32679C400.899 1.00161 405.835 0.518109 415 0.514594C426.038 0.510815 428.436 0.831317 435.5 3.25997C455.396 10.0996 470.078 22.6353 478.982 40.385C488.672 59.6996 489.321 80.1714 480.873 100.024C477.276 108.476 476.05 110.529 470.342 117.653C461.493 128.696 449.107 137.178 435 141.855C426.252 144.756 409.213 145.458 399.5 143.319ZM434.088 135.874C454.727 128.982 471.614 111.748 478.057 91.0011C485.282 67.7371 478.091 41.3885 459.874 24.3635C429.183 -4.31553 382.135 1.48928 358.386 36.8851C345.684 55.8156 344.63 82.1901 355.736 103.222C360.619 112.47 374.083 126.234 382.5 130.583C389.395 134.145 396.54 136.707 403 137.933C410.514 139.359 426.901 138.274 434.088 135.874ZM408.5 121.23C398.402 119.74 387.358 114.114 379.624 106.52C364.207 91.3828 360.65 68.455 370.77 49.4599C374.437 42.5754 385.268 31.9597 392 28.6514C403.531 22.9843 415.843 21.4769 426.068 24.4804C451.207 31.8644 466.424 54.6956 462.882 79.7161C461.846 87.0382 457.145 97.3335 451.802 103.982C447.717 109.065 436.848 116.357 429.68 118.823C423.933 120.8 413.567 121.978 408.5 121.23ZM428.051 113.367C433.626 111.4 442.16 105.557 446.541 100.708C453.732 92.7481 458.907 77.5339 457.486 68.5298C455.738 57.4581 451.869 49.1461 445.328 42.411C434.328 31.0848 417.275 26.2386 403.164 30.4289C370.952 39.9951 360.35 78.975 383.63 102.255C395.417 114.042 413.393 118.539 428.051 113.367ZM536.161 142.923C532.125 141.827 526.275 139.477 523.161 137.701C516.35 133.815 507.984 126.233 508.042 123.998C508.087 122.259 525.908 107.983 529.065 107.158C530.281 106.84 532.258 107.782 534.493 109.745C541.221 115.652 555.122 117.475 562.836 113.461C572.069 108.657 574.477 97.5184 567.659 91.1505C563.666 87.421 561.157 86.4745 547.055 83.3786C527.509 79.0872 516.757 72.232 510.641 60.1622C501.702 42.5226 507.695 20.4469 524.576 8.83237C531.245 4.24432 543.102 0.745137 553.998 0.14971C565.896 -0.500482 572.765 0.882109 582.942 5.97627C591.268 10.1432 601.52 18.7961 600.795 21.0431C600.168 22.9845 582.925 36.7563 580.186 37.503C578.438 37.9796 577.157 37.4028 574.95 35.1452C571.718 31.8395 562.947 28.885 556.366 28.885C549.843 28.885 542.442 31.5709 539.575 34.9782C534.138 41.4398 537.462 51.5057 545.814 53.8699C547.841 54.4437 553.775 55.5954 559 56.4294C573.586 58.7573 583.219 62.9955 590.588 70.3277C598.384 78.0858 601.119 84.7128 601.753 97.385C602.123 104.778 601.817 107.545 600.038 112.885C593.419 132.747 577.854 143.422 554 144.459C545.588 144.825 542.041 144.519 536.161 142.923ZM562.321 137.92C575.466 135.767 587.358 127.012 592.626 115.607C595.215 110.001 595.499 108.345 595.495 98.885C595.491 89.7625 595.178 87.7947 593.112 83.885C586.719 71.787 577.711 65.9482 560.688 62.8664C539.668 59.061 536.77 57.7964 533.185 50.8622C531.373 47.358 530.95 45.1756 531.236 40.8197C531.717 33.4875 534.656 29.408 541.91 26.0067C546.739 23.7418 548.725 23.4016 556.5 23.5064C565.933 23.6338 571.802 25.1834 577.078 28.9406L580.024 31.0382L586.571 25.8283L593.119 20.6184L590.422 17.8032C586.484 13.6933 575.449 8.24878 568.182 6.83078C549.576 3.20036 526.793 10.4831 518.815 22.611C512.162 32.7258 510.612 45.682 514.894 55.3969C520.035 67.0579 530.844 73.8518 551.5 78.4046C569.035 82.2696 575.088 86.4917 576.812 96.0629C578.537 105.635 574.21 114.357 565.518 118.83C561.336 120.982 559.208 121.385 552.027 121.385C544.757 121.385 542.689 120.984 538 118.661C534.975 117.162 531.763 115.396 530.861 114.736C529.489 113.731 528.149 114.39 522.611 118.796C518.975 121.69 516.014 124.356 516.031 124.721C516.078 125.731 523.962 131.413 528.76 133.894C537.807 138.573 549.655 139.994 562.321 137.92ZM0 72.385V2.88505H11.5H23V61.385V119.885H58H93V130.885V141.885H46.5H0V72.385ZM144 109.613V77.3407L141.172 73.8629C135.384 66.744 88 3.95306 88 3.40166C88 3.08645 94.1875 2.95378 101.75 3.10685L115.5 3.38505L135.992 28.9578L156.484 54.5304L175.992 28.7162L195.5 2.902L210.834 2.89439L226.168 2.88683L223.195 6.63689C221.56 8.69938 208.247 25.4093 193.611 43.77L167 77.1533V109.52V141.887H155.5H144V109.613ZM288.553 133.635C284.998 129.098 272.491 113.014 260.759 97.893L239.428 70.4009L266.964 36.673L294.5 2.94508L309.25 2.91486C317.363 2.89974 324 3.13178 324 3.43384C324 3.73583 311.85 18.7806 297 36.8665C282.15 54.9526 270 70.0292 270 70.3702C270 70.902 319.625 135.237 323.814 140.135C325.229 141.79 324.492 141.885 310.163 141.885H295.015L288.553 133.635Z" fill="#6366F1"/>
</svg>
